<svg width="1131" height="1131" viewBox="0 0 1131 1131" fill="none" xmlns="http://www.w3.org/2000/svg">
<g opacity="0.2">
<path d="M-5.49252e-06 1005.35L0 1131L125.654 1131C246.671 830.72 393.249 642.182 565.5 565.5C377.415 578.62 188.99 725.31 -5.49252e-06 1005.35Z" fill="white"/>
<path d="M-1.099e-05 502.616L-5.49252e-06 628.384L0 754.038C195.776 576.358 384.314 513.587 565.5 565.5C413.041 454.662 224.503 433.739 -1.099e-05 502.616Z" fill="white"/>
<path d="M-2.47188e-05 -2.09808e-05L-1.92263e-05 125.654L-1.37338e-05 251.308C271.553 304.465 460.091 409.196 565.5 565.5C519.921 382.617 331.383 194.08 -2.47188e-05 -2.09808e-05Z" fill="white"/>
<path d="M1005.35 -4.02071e-05L879.692 -3.47146e-05L754.038 -2.92221e-05C763.99 246.106 701.107 434.53 565.5 565.5C737.751 488.818 884.329 300.28 1005.35 -4.02071e-05Z" fill="white"/>
<path d="M1131 376.962L1131 251.308L1131 125.654C942.01 405.69 753.585 552.38 565.5 565.5C746.686 617.413 935.224 554.642 1131 376.962Z" fill="white"/>
<path d="M1131 879.692L1131 754.038L1131 628.384C906.497 697.262 717.959 676.338 565.5 565.5C670.909 721.804 859.447 826.535 1131 879.692Z" fill="white"/>
<path d="M879.692 1131L1005.35 1131L1131 1131C799.617 936.92 611.079 748.383 565.5 565.5C545.821 753.02 650.551 941.444 879.692 1131Z" fill="white"/>
<path d="M376.962 1131L502.616 1131L628.27 1131C503.86 923.462 482.824 734.924 565.5 565.5C429.893 696.47 367.122 884.894 376.962 1131Z" fill="white"/>
<path d="M565.5 565.5C648.176 396.076 627.139 207.538 502.616 -3.19659e-05L376.962 -2.64733e-05L251.308 -2.09808e-05C480.449 189.556 585.179 377.98 565.5 565.5Z" fill="white"/>
</g>
</svg>
