<svg width="375" height="667" viewBox="0 0 375 667" fill="none" xmlns="http://www.w3.org/2000/svg">
<g opacity="0.2">
<path d="M-375 968.346L-375 1094L-249.346 1094C-128.329 793.719 18.2487 605.182 190.5 528.5C2.41469 541.62 -186.01 688.31 -375 968.346Z" fill="white"/>
<path d="M-375 465.616L-375 591.384L-375 717.038C-179.224 539.358 9.31381 476.587 190.5 528.5C38.0412 417.662 -150.497 396.739 -375 465.616Z" fill="white"/>
<path d="M-375 -37L-375 88.6541L-375 214.308C-103.447 267.465 85.0908 372.196 190.5 528.5C144.921 345.617 -43.617 157.08 -375 -37Z" fill="white"/>
<path d="M630.346 -37L504.692 -37L379.038 -37C388.99 209.106 326.107 397.53 190.5 528.5C362.751 451.818 509.329 263.28 630.346 -37Z" fill="white"/>
<path d="M756 339.962L756 214.308L756 88.654C567.01 368.69 378.585 515.38 190.5 528.5C371.686 580.413 560.224 517.642 756 339.962Z" fill="white"/>
<path d="M756 842.692L756 717.038L756 591.384C531.497 660.262 342.959 639.338 190.5 528.5C295.909 684.804 484.447 789.535 756 842.692Z" fill="white"/>
<path d="M504.692 1094L630.346 1094L756 1094C424.617 899.92 236.079 711.383 190.5 528.5C170.821 716.02 275.551 904.444 504.692 1094Z" fill="white"/>
<path d="M1.96215 1094L127.616 1094L253.27 1094C128.86 886.461 107.824 697.924 190.5 528.5C54.893 659.47 -7.87756 847.894 1.96215 1094Z" fill="white"/>
<path d="M190.5 528.5C273.176 359.076 252.139 170.538 127.616 -37L1.96216 -37L-123.692 -37C105.449 152.556 210.179 340.98 190.5 528.5Z" fill="white"/>
</g>
</svg>
